<svg xmlns="http://www.w3.org/2000/svg" viewBox="0 0 32 32">
  <defs>
    <linearGradient id="g" x1="0" y1="0" x2="0" y2="1">
      <stop offset="0%" stop-color="#d4a843"/>
      <stop offset="100%" stop-color="#8b6914"/>
    </linearGradient>
  </defs>
  <rect width="32" height="32" rx="6" fill="#0a0f1a"/>
  <path d="M16 4 L16 28 M10 8 C10 8 16 14 16 16 M22 8 C22 8 16 14 16 16 M10 24 C10 24 16 18 16 16 M22 24 C22 24 16 18 16 16 M8 16 L24 16" stroke="url(#g)" stroke-width="1.8" stroke-linecap="round" fill="none"/>
  <circle cx="16" cy="16" r="2.5" fill="url(#g)"/>
  <circle cx="16" cy="6" r="1.5" fill="url(#g)"/>
  <circle cx="16" cy="26" r="1.5" fill="url(#g)"/>
  <circle cx="9" cy="10" r="1.2" fill="url(#g)"/>
  <circle cx="23" cy="10" r="1.2" fill="url(#g)"/>
  <circle cx="9" cy="22" r="1.2" fill="url(#g)"/>
  <circle cx="23" cy="22" r="1.2" fill="url(#g)"/>
</svg>
